<svg width="300" height="200" viewBox="0 0 300 200" fill="none" xmlns="http://www.w3.org/2000/svg">
<g id="country-details-animation" clip-path="url(#clip0)">
<g id="flowers">
<path id="Vector" d="M139.508 182.9L142.671 181.686C143.232 179.749 143.711 177.772 144.105 175.764L142.619 175.692L144.239 175.07C144.708 172.58 144.9 170.891 144.9 170.891C144.9 170.891 138.485 173.437 133.655 178.405L133.059 183.977L132.489 179.693C131.963 180.315 131.467 180.98 131.004 181.684C126.354 188.809 124.33 196.608 126.484 199.105C128.638 201.601 134.154 197.85 138.805 190.725C140.244 188.412 141.408 185.818 142.258 183.034L139.508 182.9Z" fill="#CFE0E6"/>
<path id="Vector_2" d="M19.6849 157.515L17.8822 148.041C14.6858 146.236 11.4155 144.672 8.08687 143.358L7.85925 147.761L6.93628 142.91C2.80828 141.339 0 140.647 0 140.647C0 140.647 3.79335 159.869 11.7496 174.565L21.0204 176.735L13.8182 178.119C14.8194 179.724 15.8954 181.243 17.0398 182.668C28.6139 196.984 41.5053 203.552 45.8335 197.339C50.1617 191.125 44.2877 174.482 32.7136 160.167C29.1256 155.728 24.6182 152.167 20.1063 149.364L19.6849 157.515Z" fill="#CFE0E6"/>
<path id="Vector_3" d="M36.83 147.226L38.9621 137.874C36.926 134.127 34.7329 130.536 32.3933 127.118L30.4904 130.73L31.5821 125.942C28.6576 121.754 26.522 119.227 26.522 119.227C26.522 119.227 22.313 138.295 23.4235 156.355L30.518 164.599L23.8158 160.822C24.0503 162.886 24.382 164.928 24.8089 166.936C29.1637 187.163 37.6514 201.666 43.7669 199.328C49.8823 196.99 51.3096 178.697 46.9548 158.47C45.6048 152.199 43.1278 146.046 40.3527 140.538L36.83 147.226Z" fill="#CFE0E6"/>
</g>
<g id="people">
<path id="Vector_4" d="M65.6704 186.377L66.4151 190.841L71.6261 190.344L71.254 185.385L65.6704 186.377Z" fill="#FFB8B8"/>
<path id="Vector_5" d="M52.6428 186.377L51.8985 190.841L46.6871 190.344L47.0596 185.385L52.6428 186.377Z" fill="#FFB8B8"/>
<path id="Vector_6" d="M51.1539 41.5434C55.0597 41.5434 58.226 37.3241 58.226 32.1193C58.226 26.9146 55.0597 22.6953 51.1539 22.6953C47.248 22.6953 44.0817 26.9146 44.0817 32.1193C44.0817 37.3241 47.248 41.5434 51.1539 41.5434Z" fill="#FFB8B8"/>
<path id="Vector_7" d="M46.6871 34.5992L44.8263 46.0075L54.1315 49.9755L53.7594 35.5916L46.6871 34.5992Z" fill="#FFB8B8"/>
<path id="Vector_8" d="M50.0372 47.4955L45.3542 42.7707C45.3542 42.7707 44.4539 41.0474 44.0817 42.5354C43.7095 44.0234 40.3595 49.4795 40.3595 49.4795L42.9651 90.1518L62.6927 90.6478C62.6927 90.6478 54.9841 43.235 53.9995 44.8692C53.015 46.5035 50.4095 46.5034 50.0372 47.4955Z" fill="#CFE0E6"/>
<path id="Vector_9" d="M53.9456 41.7914C53.9456 41.7914 52.4567 43.7754 53.2011 45.2634C53.9456 46.7514 53.3872 49.5107 54.1317 49.7431C54.8761 49.9755 53.3872 66.8396 55.6206 71.3037C57.8539 75.7677 56.7372 87.1758 56.7372 89.1598C56.7372 91.1438 58.9705 103.048 58.9705 103.048C58.9705 103.048 66.415 104.04 66.415 101.56C66.415 99.0799 63.8094 81.7197 63.8094 81.7197L66.0428 50.9675C66.0428 50.9675 66.0427 47.9915 63.4372 46.9994C60.8316 46.0074 55.6206 43.5274 55.6206 43.5274L53.9456 41.7914Z" fill="#2F2E41"/>
<path id="Vector_10" d="M64.5539 77.7517H62.6928C62.6928 77.7517 53.015 78.7437 53.7595 73.2877C54.5039 67.8316 61.9483 71.7996 61.9483 71.7996L64.1816 73.2877L64.5539 77.7517Z" fill="#FFB8B8"/>
<path id="Vector_11" d="M45.6501 40.9573C45.6501 40.9573 42.5929 43.5274 42.2207 44.5194C41.8484 45.5114 33.2874 50.9675 33.2874 54.9355C33.2874 58.9035 35.8929 63.3676 35.8929 63.3676L39.2429 107.016C39.2429 107.016 44.8262 109.496 45.1984 107.512C45.5707 105.528 47.0595 61.8796 46.3151 59.8956C45.5707 57.9115 45.5707 45.0154 45.5707 45.0154L45.6501 40.9573Z" fill="#2F2E41"/>
<path id="Vector_12" d="M35.8929 112.968L35.5206 115.944C35.5206 115.944 35.8928 125.864 38.8706 125.368C41.8484 124.872 39.9873 114.952 39.9873 114.952L39.6151 112.968H35.8929Z" fill="#FFB8B8"/>
<path id="Vector_13" d="M40.3595 87.6718C40.3595 87.6718 40.7317 132.312 42.5928 146.696C44.4539 161.08 45.1984 185.881 45.1984 185.881C45.1984 185.881 50.0372 186.873 50.7817 187.369C51.5261 187.865 53.3872 186.377 53.3872 186.377L53.7595 112.968L60.8316 146.2C60.8316 146.2 61.9483 186.377 64.1816 187.369C66.415 188.361 73.1149 186.377 73.1149 186.377C73.1149 186.377 70.5094 148.184 69.7649 146.696C69.0205 145.208 67.1594 101.56 64.1816 93.6238L63.065 88.1678C63.065 88.1678 41.8484 89.1598 40.3595 87.6718Z" fill="#2F2E41"/>
<path id="Vector_14" d="M66.7872 188.857C66.7872 188.857 64.9261 186.873 64.9261 188.361C64.9261 189.849 63.065 199.025 65.2983 199.025C67.5316 199.025 82.4205 200.761 82.0483 196.793C81.676 192.825 72.7192 186.489 72.7192 186.489C72.7192 186.489 69.3927 187.865 69.0205 188.361C68.6483 188.857 66.7872 188.857 66.7872 188.857Z" fill="#2F2E41"/>
<path id="Vector_15" d="M51.5261 188.857C51.5261 188.857 53.3872 186.873 53.3872 188.361C53.3872 189.849 55.2483 199.025 53.015 199.025C50.7817 199.025 35.8928 200.761 36.265 196.793C36.6373 192.825 45.5941 186.489 45.5941 186.489C45.5941 186.489 48.9205 187.865 49.2928 188.361C49.665 188.857 51.5261 188.857 51.5261 188.857Z" fill="#2F2E41"/>
<path id="Vector_16" d="M63.4371 50.4715L66.0427 50.9675L71.2538 70.8076C71.2538 70.8076 72.7427 80.7277 70.5093 82.2157C68.276 83.7038 64.0609 83.413 64.0609 83.413L63.4371 72.2957L65.2982 72.7917L63.4371 67.8316V50.4715Z" fill="#2F2E41"/>
<path id="Vector_17" d="M35.1484 52.9515L33.2872 54.9355C33.2872 54.9355 31.4261 80.2317 31.7984 82.7117C32.1706 85.1917 34.4039 115.448 34.4039 115.448L40.7317 113.464L36.265 53.4475L35.1484 52.9515Z" fill="#2F2E41"/>
<path id="Vector_18" d="M43.3299 25.2696C43.3299 25.2696 41.2709 21.7889 43.3299 20.0486V20.9187C43.3299 20.9187 47.7422 14.3924 50.3895 16.1328L52.7427 15.2626V16.1328L54.2135 15.2626L53.9193 16.5679H55.9784L55.0959 17.4381C55.0959 17.4381 61.8614 17.003 57.7433 23.5293C57.7433 23.5293 59.7007 27.4422 57.8396 29.619C57.8396 29.619 56.2725 24.8345 54.2135 26.1398C53.6557 26.5257 53.0265 26.6898 52.4007 26.6127C51.7749 26.5355 51.1789 26.2204 50.6837 25.7047C50.6837 25.7047 46.5656 25.2696 47.1539 27.8801C47.7422 30.4907 47.448 31.3608 47.448 31.3608C47.448 31.3608 45.9773 32.6661 46.2714 33.5363C46.5656 34.4064 46.5656 37.017 46.5656 37.017C46.5656 37.017 45.0948 33.9713 44.5065 34.4064C43.9183 34.8415 40.6826 30.4907 43.3299 25.2696Z" fill="#2F2E41"/>
<path id="Vector_19" d="M124.026 56.4217L108.375 56.9397L106.268 32.0714H124.026V56.4217Z" fill="#2F2E41"/>
<path id="Vector_20" d="M107.458 88.6597L101.746 141.442C101.746 141.442 96.7943 160.22 96.4135 169.355L94.89 182.551L101.746 184.581L108.982 147.532L118.884 114.036L117.742 152.607L115.457 184.073L122.312 185.596L126.502 145.502L131.072 116.066C131.072 116.066 134.5 90.6898 129.168 88.1522L107.458 88.6597Z" fill="#2F2E41"/>
<path id="Vector_21" d="M101.287 179.311L100.525 191.664C100.525 191.664 108.683 197.949 106.065 199.168C103.448 200.386 99.8648 198.818 99.132 198.542C98.3581 198.249 96.9133 197.783 95.82 197.438C95.314 197.283 94.8584 196.917 94.52 196.392C94.1817 195.868 93.9783 195.213 93.9398 194.523L93.9378 194.477C93.8719 192.957 96.4454 179.748 96.4454 179.748L101.287 179.311Z" fill="#2F2E41"/>
<path id="Vector_22" d="M121.098 179.62L121.741 191.432C121.741 191.432 131.031 196.031 128.636 197.894C126.241 199.756 122.5 199.13 121.741 199.045C120.341 198.888 116.858 198.731 116.858 198.731C116.858 198.731 116.215 199.474 115.932 197.999C115.649 196.524 116.309 183.345 116.309 183.345L121.098 179.62Z" fill="#2F2E41"/>
<path id="Vector_23" d="M115.457 46.0282C119.453 46.0282 122.693 41.7109 122.693 36.3854C122.693 31.0598 119.453 26.7425 115.457 26.7425C111.46 26.7425 108.22 31.0598 108.22 36.3854C108.22 41.7109 111.46 46.0282 115.457 46.0282Z" fill="#FFB8B8"/>
<path id="Vector_24" d="M111.267 41.968L109.743 53.1335L116.218 57.1938L117.742 42.9833L111.267 41.968Z" fill="#FFB8B8"/>
<path id="Vector_25" d="M110.505 94.7499L118.503 102.363C118.503 102.363 121.931 114.036 124.597 112.006C127.263 109.975 121.55 99.8251 121.55 99.8251L115.076 91.1973L110.505 94.7499Z" fill="#FFB8B8"/>
<path id="Vector_26" d="M133.357 91.1973L134.119 97.2875C134.119 97.2875 132.214 109.975 129.929 107.438C127.644 104.9 130.691 96.78 130.691 96.78L130.31 91.7048L133.357 91.1973Z" fill="#FFB8B8"/>
<path id="Vector_27" d="M115.456 54.1485L114.695 50.0883L110.124 47.0432L108.601 49.5808L103.65 51.6109L109.363 92.2123C109.363 92.2123 128.787 93.7349 129.167 89.6748C129.548 85.6146 125.359 74.4492 125.359 74.4492C125.359 74.4492 126.501 68.8665 126.12 65.8214L124.597 53.641L118.503 51.1034L117.112 48.8597L115.837 51.6109L115.456 54.1485Z" fill="#CFE0E6"/>
<path id="Vector_28" d="M104.792 52.6259L103.65 51.6109C103.65 51.6109 101.365 52.1184 100.603 56.1786C99.8412 60.2387 100.603 78.5094 102.507 82.062C104.412 85.6146 109.744 96.2725 109.744 96.2725L116.98 91.7048L109.363 80.0319L107.458 65.3139L104.792 52.6259Z" fill="#CFE0E6"/>
<path id="Vector_29" d="M121.55 54.656L124.597 53.641C124.597 53.641 126.501 54.656 127.263 58.2086C128.025 61.7613 132.214 79.5244 131.833 81.047C131.452 82.5695 135.261 92.7199 135.261 92.7199L129.929 93.2274L126.882 82.5695L123.835 71.9116L121.55 54.656Z" fill="#CFE0E6"/>
<path id="Vector_30" d="M102.915 45.5427C104.441 44.426 105.151 41.9195 105.201 39.6004C105.252 37.2814 104.83 34.9863 104.797 32.6666C104.78 32.1921 104.81 31.7166 104.887 31.2527C105.014 30.6769 105.211 30.1329 105.471 29.6429C107.455 25.5908 110.905 22.7403 114.539 22.6955C115.064 22.6863 115.585 22.814 116.073 23.0714C116.449 23.2719 116.572 23.2474 116.644 23.862C117.504 23.4836 118.438 23.5232 119.279 23.9737C120.112 24.4249 120.889 25.0415 121.583 25.8025C121.996 26.2116 122.386 26.6609 122.748 27.1468C124.669 29.7977 125.111 33.8832 124.555 37.4923C124.374 38.6657 125.242 39.7984 125.96 40.5191C126.678 41.2398 127.507 41.9016 127.859 43.0035C128.198 44.0634 128.012 45.2756 128.08 46.4243C128.157 47.5101 128.46 48.5458 128.955 49.4144C129.45 50.283 130.117 50.9499 130.881 51.34C130.726 51.5888 130.522 51.7768 130.293 51.8844C130.063 51.9919 129.816 52.0149 129.578 51.951C129.08 51.8112 128.614 51.5158 128.219 51.0891C126.733 49.6216 125.67 47.5191 125.207 45.1327C124.996 46.4109 125.078 47.7293 125.085 49.038C125.067 50.4984 125.269 51.949 125.679 53.3035C126.096 54.6646 126.86 55.7858 127.837 56.4699C126.895 57.0845 125.857 56.6391 125.059 55.7325C124.294 54.7648 123.741 53.5377 123.46 52.183C122.925 50.0207 122.707 47.741 122.821 45.4689C121.944 47.4345 121.624 49.7525 121.918 52.0048C122.224 54.3013 123.124 56.3824 124.461 57.8877C122.13 57.8614 119.837 57.092 117.775 55.6438C117.242 55.3221 116.773 54.8403 116.403 54.2363C115.739 53.0094 115.896 51.336 116.083 49.844C116.23 48.6643 115.123 46.9588 115.757 46.1117C115.945 45.8639 116.197 45.7198 116.461 45.7084C117.414 45.6134 118.337 45.2278 119.16 44.5815C119.984 43.9351 120.684 43.0452 121.208 41.9805C121.938 40.5167 122.353 38.8137 122.408 37.0572C122.407 35.7674 122.198 34.4929 121.793 33.321C121.389 32.149 120.8 31.1071 120.066 30.2666C119.332 29.426 118.47 28.8066 117.54 28.4507C116.609 28.0947 115.632 28.0107 114.675 28.2042C113.719 28.3978 112.804 28.8644 111.995 29.5721C111.186 30.2799 110.501 31.2121 109.987 32.3051C109.473 33.3981 109.142 34.626 109.017 35.905C108.893 37.184 108.976 38.4839 109.263 39.7158C109.492 40.7071 109.655 41.7229 109.752 42.7519C109.867 43.9458 110.05 45.1265 110.298 46.2838C110.777 48.5079 111.589 50.7773 113.092 51.9374C112.567 52.2372 112.002 52.3965 111.431 52.4062C109.545 52.683 107.562 52.6219 105.856 51.5184C104.149 50.415 102.793 48.0651 102.915 45.5427Z" fill="#2F2E41"/>
<path id="Vector_31" d="M107.029 35.6983C112.443 32.8064 117.781 32.1895 122.98 35.6983V29.8692C122.98 28.8623 122.68 27.8967 122.146 27.1847C121.612 26.4727 120.887 26.0727 120.131 26.0727H109.279C108.984 26.0727 108.691 26.1503 108.418 26.301C108.145 26.4517 107.897 26.6727 107.688 26.9512C107.479 27.2297 107.313 27.5603 107.2 27.9242C107.087 28.2881 107.029 28.6781 107.029 29.072V35.6983Z" fill="#2F2E41"/>
<path id="Vector_32" d="M108.714 39.308C109.154 39.308 109.512 38.5461 109.512 37.6064C109.512 36.6666 109.154 35.9048 108.714 35.9048C108.273 35.9048 107.916 36.6666 107.916 37.6064C107.916 38.5461 108.273 39.308 108.714 39.308Z" fill="#FFB8B8"/>
<path id="Vector_33" d="M175.775 199.099H0V200H175.775V199.099Z" fill="#3F3D56"/>
</g>
<g id="border">
<path id="Vector_34" d="M288.395 13.2408H154.861V102.211H288.395V13.2408Z" fill="#CFE0E6"/>
<path id="Vector_35" d="M300 89.8719H165.789V3.8147e-06H300V89.8719ZM166.465 88.971H299.324V0.900885H166.465V88.971Z" fill="#3F3D56"/>
</g>
<g id="question-mark">
<path id="Vector_36" d="M232.506 73.102C232.505 74.5394 232.185 75.9441 231.585 77.1387C230.985 78.3334 230.133 79.2643 229.137 79.8139C228.14 80.3635 227.043 80.507 225.985 80.2263C224.928 79.9457 223.956 79.2534 223.193 78.2371C222.431 77.2208 221.911 75.926 221.7 74.5164C221.49 73.1067 221.598 71.6455 222.01 70.3174C222.422 68.9893 223.121 67.8539 224.017 67.0548C224.914 66.2556 225.968 65.8285 227.047 65.8274C227.764 65.8247 228.475 66.0111 229.138 66.3757C229.802 66.7403 230.404 67.2761 230.911 67.9521C231.419 68.6281 231.821 69.4312 232.094 70.315C232.368 71.1988 232.508 72.146 232.506 73.102Z" fill="#29FFA6"/>
<path id="Vector_37" opacity="0.3" d="M232.506 73.102C232.505 74.5394 232.185 75.9441 231.585 77.1387C230.985 78.3334 230.133 79.2643 229.137 79.8139C228.14 80.3635 227.043 80.507 225.985 80.2263C224.928 79.9457 223.956 79.2534 223.193 78.2371C222.431 77.2208 221.911 75.926 221.7 74.5164C221.49 73.1067 221.598 71.6455 222.01 70.3174C222.422 68.9893 223.121 67.8539 224.017 67.0548C224.914 66.2556 225.968 65.8285 227.047 65.8274C227.764 65.8247 228.475 66.0111 229.138 66.3757C229.802 66.7403 230.404 67.2761 230.911 67.9521C231.419 68.6281 231.821 69.4312 232.094 70.315C232.368 71.1988 232.508 72.146 232.506 73.102Z" fill="black"/>
<path id="Vector_38" d="M242.393 36.4317C242.404 38.809 242.036 41.1624 241.315 43.3369C241.003 44.2729 240.628 45.1699 240.196 46.0171C239.301 47.7418 238.226 49.2887 237.005 50.6116C236.796 50.8458 236.566 51.089 236.258 51.4043C235.873 51.7872 235.443 52.1881 234.95 52.6205C234.079 53.3715 233.24 54.1882 232.438 55.0664C231.963 55.5602 231.551 56.1535 231.218 56.8231C230.802 57.7916 230.593 59.6654 230.593 62.3951V62.8455H221.48V60.7374C221.48 59.0888 221.51 57.7015 221.567 56.4943C221.609 55.4004 221.695 54.3102 221.824 53.2286C221.914 52.2773 222.129 51.3546 222.46 50.5034C223.058 49.1746 224.501 47.3684 226.868 44.981C226.969 44.882 227.071 44.7783 227.175 44.6747C227.273 44.5847 227.368 44.4901 227.466 44.391C228.286 43.6151 229.04 42.7241 229.717 41.7334C229.915 41.4248 230.098 41.0998 230.265 40.7604L230.309 40.6703C230.839 39.4195 231.098 37.9977 231.059 36.5623C231.062 36.1992 231.044 35.8363 231.005 35.4768C230.9 34.0744 230.412 32.7726 229.633 31.8191C228.788 30.787 227.698 30.1814 226.553 30.1075C226.408 30.0894 226.273 30.0849 226.134 30.0849C225.595 30.081 225.058 30.1657 224.535 30.3372C223.555 30.6595 222.675 31.3844 222.02 32.4092C221.673 32.955 221.378 33.5556 221.141 34.1975C220.343 36.6524 219.832 39.2563 219.627 41.918L219.593 42.391L211.014 39.346V34.3056C211.055 34.1029 211.099 33.9002 211.146 33.702C211.694 31.1741 212.566 28.792 213.725 26.6616C214.22 25.7576 214.778 24.9176 215.392 24.1526C215.537 23.959 215.696 23.7698 215.855 23.5851C216.887 22.3909 218.034 21.3851 219.265 20.5942L219.374 20.5266C221.706 19.09 224.251 18.3696 226.82 18.4185C227.087 18.4185 227.402 18.423 227.713 18.4455C230.266 18.5318 232.772 19.3832 235.045 20.9365C236.065 21.6404 237.021 22.499 237.894 23.495C240.343 26.1552 241.92 29.9802 242.292 34.1614C242.36 34.9148 242.394 35.6729 242.393 36.4317Z" fill="#29FFA6"/>
<path id="Vector_39" opacity="0.3" d="M242.393 36.4317C242.404 38.809 242.036 41.1624 241.315 43.3369C241.003 44.2729 240.628 45.1699 240.196 46.0171C239.301 47.7418 238.226 49.2887 237.005 50.6116C236.796 50.8458 236.566 51.089 236.258 51.4043C235.873 51.7872 235.443 52.1881 234.95 52.6205C234.079 53.3715 233.24 54.1882 232.438 55.0664C231.963 55.5602 231.551 56.1535 231.218 56.8231C230.802 57.7916 230.593 59.6654 230.593 62.3951V62.8455H221.48V60.7374C221.48 59.0888 221.51 57.7015 221.567 56.4943C221.609 55.4004 221.695 54.3102 221.824 53.2286C221.914 52.2773 222.129 51.3546 222.46 50.5034C223.058 49.1746 224.501 47.3684 226.868 44.981C226.969 44.882 227.071 44.7783 227.175 44.6747C227.273 44.5847 227.368 44.4901 227.466 44.391C228.286 43.6151 229.04 42.7241 229.717 41.7334C229.915 41.4248 230.098 41.0998 230.265 40.7604L230.309 40.6703C230.839 39.4195 231.098 37.9977 231.059 36.5623C231.062 36.1992 231.044 35.8363 231.005 35.4768C230.9 34.0744 230.412 32.7726 229.633 31.8191C228.788 30.787 227.698 30.1814 226.553 30.1075C226.408 30.0894 226.273 30.0849 226.134 30.0849C225.595 30.081 225.058 30.1657 224.535 30.3372C223.555 30.6595 222.675 31.3844 222.02 32.4092C221.673 32.955 221.378 33.5556 221.141 34.1975C220.343 36.6524 219.832 39.2563 219.627 41.918L219.593 42.391L211.014 39.346V34.3056C211.055 34.1029 211.099 33.9002 211.146 33.702C211.694 31.1741 212.566 28.792 213.725 26.6616C214.22 25.7576 214.778 24.9176 215.392 24.1526C215.537 23.959 215.696 23.7698 215.855 23.5851C216.887 22.3909 218.034 21.3851 219.265 20.5942L219.374 20.5266C221.706 19.09 224.251 18.3696 226.82 18.4185C227.087 18.4185 227.402 18.423 227.713 18.4455C230.266 18.5318 232.772 19.3832 235.045 20.9365C236.065 21.6404 237.021 22.499 237.894 23.495C240.343 26.1552 241.92 29.9802 242.292 34.1614C242.36 34.9148 242.394 35.6729 242.393 36.4317Z" fill="black"/>
<path id="Vector_40" d="M228.788 73.102C228.787 74.5394 228.466 75.9441 227.867 77.1387C227.267 78.3334 226.415 79.2643 225.418 79.8139C224.422 80.3635 223.325 80.507 222.267 80.2263C221.209 79.9457 220.238 79.2534 219.475 78.2371C218.712 77.2208 218.193 75.926 217.982 74.5164C217.772 73.1067 217.879 71.6455 218.292 70.3174C218.704 68.9893 219.403 67.8539 220.299 67.0548C221.196 66.2556 222.25 65.8285 223.329 65.8274C224.046 65.8247 224.757 66.0111 225.42 66.3757C226.083 66.7403 226.686 67.2761 227.193 67.9521C227.701 68.6281 228.103 69.4312 228.376 70.315C228.65 71.1988 228.79 72.146 228.788 73.102Z" fill="#29FFA6"/>
<path id="Vector_41" d="M238.675 36.4317C238.685 38.809 238.318 41.1624 237.597 43.3369C237.284 44.2729 236.91 45.1699 236.478 46.0171C235.582 47.7418 234.508 49.2887 233.287 50.6116C233.077 50.8458 232.847 51.089 232.54 51.4043C232.154 51.7872 231.725 52.1881 231.232 52.6205C230.36 53.3715 229.522 54.1882 228.72 55.0664C228.245 55.5602 227.833 56.1535 227.5 56.8231C227.084 57.7916 226.874 59.6654 226.874 62.3951V62.8455H217.761V60.7374C217.761 59.0888 217.792 57.7015 217.849 56.4943C217.89 55.4004 217.976 54.3102 218.106 53.2286C218.195 52.2773 218.41 51.3546 218.741 50.5034C219.34 49.1746 220.783 47.3684 223.149 44.981C223.251 44.882 223.352 44.7783 223.457 44.6747C223.555 44.5847 223.65 44.4901 223.748 44.391C224.567 43.6151 225.322 42.7241 225.999 41.7334C226.197 41.4248 226.38 41.0998 226.547 40.7604L226.59 40.6703C227.12 39.4195 227.38 37.9977 227.341 36.5623C227.343 36.1992 227.325 35.8363 227.287 35.4768C227.182 34.0744 226.693 32.7726 225.914 31.8191C225.069 30.787 223.98 30.1814 222.835 30.1075C222.69 30.0894 222.554 30.0849 222.416 30.0849C221.877 30.081 221.34 30.1657 220.817 30.3372C219.836 30.6595 218.957 31.3844 218.302 32.4092C217.955 32.955 217.66 33.5556 217.423 34.1975C216.815 35.8146 216.419 37.9586 216.247 40.5667L216.213 41.0397L206.566 39.2064L206.613 38.7604C206.782 37.0479 207.055 35.3564 207.428 33.702C207.975 31.1741 208.848 28.792 210.007 26.6616C210.502 25.7576 211.06 24.9176 211.673 24.1526C211.819 23.959 211.978 23.7698 212.136 23.5851C213.169 22.3909 214.316 21.3851 215.547 20.5942L215.655 20.5266C217.988 19.09 220.533 18.3696 223.102 18.4185C223.369 18.4185 223.683 18.423 223.994 18.4455C226.548 18.5318 229.054 19.3832 231.326 20.9365C232.347 21.6404 233.303 22.499 234.176 23.495C236.625 26.1552 238.202 29.9802 238.574 34.1614C238.641 34.9148 238.675 35.6729 238.675 36.4317Z" fill="#29FFA6"/>
</g>
</g>
<defs>
<clipPath id="clip0">
<rect width="300" height="200" fill="white"/>
</clipPath>
</defs>
</svg>
