<svg width="200" height="200" viewBox="0 0 200 200" fill="none" xmlns="http://www.w3.org/2000/svg">
<g id="home-animation" clip-path="url(#clip0)">
<g id="globe">
<path id="Vector" d="M200 50.5633V50.866C199.993 51.6262 199.969 52.3829 199.93 53.1362C199.228 66.028 193.278 78.1808 183.298 87.1041C173.318 96.0274 160.064 101.045 146.253 101.13C132.442 101.214 119.119 96.3587 109.015 87.5582C98.9112 78.7577 92.791 66.6787 91.909 53.7966C91.8354 52.7269 91.7986 51.6491 91.7986 50.5633C91.7792 40.0908 95.2568 29.8736 101.747 21.3363C102.265 20.6484 102.805 19.9731 103.366 19.3104C103.752 18.8495 104.15 18.3989 104.551 17.9517C113.684 7.83987 126.693 1.47627 140.788 0.226181C154.883 -1.02391 168.941 2.9391 179.946 11.265C180.597 11.7568 181.238 12.2659 181.863 12.7853C182.364 13.2015 182.856 13.6269 183.339 14.0614C192.859 22.5716 198.718 34.0427 199.812 46.3119C199.937 47.7153 200 49.1324 200 50.5633Z" fill="#16D967"/>
</g>
<g id="continents">
<path id="Vector_2" d="M103.366 19.3104C103.392 19.3208 103.417 19.3347 103.439 19.3517C103.73 19.5752 103.366 20.0052 103.41 20.3595C103.462 20.8135 104.109 20.9133 104.599 20.958C105.088 21.0062 105.707 21.3742 105.475 21.7801C104.245 22.1756 103.002 21.787 101.747 21.3364C95.2568 29.8736 91.7792 40.0908 91.7986 50.5633C91.7986 51.6503 91.8354 52.728 91.909 53.7966C92.0119 53.8668 92.1246 53.9235 92.2439 53.9652C92.612 54.0959 93.0389 54.0718 93.3775 54.2576C93.6462 54.4055 93.8265 54.6669 94.0951 54.8045C94.8643 55.1966 95.9316 54.4433 96.6493 54.9111C96.8348 55.069 97.0105 55.2367 97.1756 55.4133C97.838 55.9499 98.9274 55.5887 99.6929 55.9912C100.186 56.2491 100.44 56.7651 100.705 57.2329C101.364 58.4024 102.431 59.5512 103.841 59.6441C104.285 59.625 104.731 59.6388 105.173 59.6854C105.607 59.7782 106.034 60.1325 105.964 60.5419C105.843 61.247 106.214 62.0175 106.115 62.7226C105.935 64.0125 103.98 64.5766 103.815 65.8665C103.814 66.1504 103.797 66.434 103.763 66.7161C103.675 67.0532 103.403 67.3284 103.307 67.6655C103.123 68.3018 103.612 68.9381 104.146 69.3647C104.683 69.7946 105.324 70.1661 105.618 70.7646C105.927 71.401 105.776 72.1405 105.876 72.8319C106.097 74.3419 107.491 75.4598 108.927 76.1821C109.387 76.3618 109.795 76.6398 110.119 76.9939C110.487 77.4926 110.45 78.1496 110.576 78.7447C110.877 80.1996 112.188 81.4001 112.224 82.8826C112.25 83.9386 111.625 84.8948 111.249 85.8889C110.863 86.931 110.748 88.0441 110.914 89.1359C113.013 90.7993 115.243 92.3114 117.587 93.6591C117.714 93.4831 117.808 93.2875 117.863 93.0812C117.907 92.8532 117.876 92.6179 117.775 92.4066C117.673 92.1953 117.504 92.0179 117.292 91.898C117.688 91.7583 118.048 91.5427 118.348 91.2651C118.496 91.123 118.594 90.9419 118.628 90.7463C118.662 90.5507 118.632 90.35 118.54 90.1713C119.188 90.247 119.957 90.2848 120.384 89.8204C120.726 89.4489 120.704 88.8917 120.568 88.4205C120.432 87.9458 120.203 87.4883 120.2 86.9964C121.7 87.0647 123.205 87.0176 124.697 86.8554C124.481 86.1751 123.99 85.6001 123.328 85.2525C124.005 85.1459 124.62 84.3892 124.833 83.7803C125.018 83.1592 125.028 82.5041 124.863 81.8782C124.811 81.7174 124.804 81.5471 124.841 81.3829C124.949 81.1647 125.141 80.992 125.378 80.8979C126.497 80.2959 127.615 79.6951 128.734 79.0955C128.934 79.0014 129.115 78.877 129.272 78.7275C129.621 78.3388 129.57 77.7575 129.389 77.2794C129.209 76.8012 128.922 76.3506 128.852 75.8484C128.646 74.3453 130.368 73.2652 130.95 71.8481C131.148 71.2824 131.254 70.6923 131.266 70.0973C131.314 69.4575 131.318 68.718 130.795 68.3087C130.291 67.9131 129.507 68.0025 128.981 67.6345C128.499 67.2974 128.333 66.6473 127.807 66.3756C127.328 66.1279 126.732 66.2861 126.199 66.1692C125.264 65.9662 124.675 64.9584 123.718 64.8655C123.181 64.8105 122.57 65.0582 122.128 64.7658C121.738 64.5044 121.723 63.985 121.65 63.5447C121.519 62.8589 121.167 62.227 120.64 61.7338C120.114 61.2407 119.439 60.9099 118.705 60.7861C118.15 60.7035 117.546 60.7345 117.071 60.449C116.593 60.1601 116.376 59.62 115.997 59.2176C115.393 58.5744 114.436 58.3439 113.542 58.1478C112.327 57.883 111.114 57.617 109.902 57.3498C109.258 57.2054 108.426 57.1297 108.077 57.6594C107.973 57.8608 107.901 58.0752 107.863 58.2957C107.732 58.6927 107.47 59.0408 107.114 59.2903C106.759 59.5398 106.328 59.6781 105.883 59.6854C105.579 59.1997 105.086 58.8424 104.507 58.6879C104.128 58.6285 103.755 58.5458 103.388 58.4402C103.196 58.3525 103.026 58.2293 102.887 58.0779C102.749 57.9266 102.644 57.7504 102.581 57.5601C102.518 57.3698 102.496 57.1694 102.519 56.9712C102.541 56.773 102.606 56.5812 102.711 56.4074C102.919 56.0583 103 55.6548 102.939 55.259C102.879 54.8631 102.681 54.4968 102.376 54.2163C101.758 53.6969 100.863 53.5696 100.031 53.6212C99.8144 53.1775 100.179 52.6787 100.569 52.3554C100.963 52.0355 101.437 51.7191 101.522 51.2375C101.658 50.4808 100.624 49.9064 99.8401 50.1299C99.0562 50.357 98.5557 51.069 98.2245 51.7707C98.0638 52.1847 97.8447 52.5769 97.5731 52.9367C97.4338 53.1147 97.2446 53.2533 97.0264 53.3371C96.8082 53.4209 96.5694 53.4466 96.3365 53.4114C95.6887 53.2566 95.4421 52.5377 95.2986 51.9323C95.0686 51.1232 94.9523 50.2895 94.9527 49.4523C94.9583 48.6069 95.3176 47.797 95.9537 47.1959C97.0247 46.2741 98.6735 46.3635 100.12 46.5114C99.9649 46.3183 99.8906 46.079 99.911 45.8384C99.9313 45.5977 100.045 45.3723 100.23 45.2043C100.424 45.0437 100.656 44.9296 100.908 44.8721C101.159 44.8146 101.422 44.8152 101.673 44.8741C102.109 44.9585 102.502 45.1778 102.788 45.4967C103.2 45.9645 103.318 46.6008 103.627 47.1305C103.94 47.6637 104.639 48.1177 105.21 47.8322C105.707 47.5846 105.784 46.9448 105.662 46.4323C105.537 45.9232 105.276 45.4245 105.32 44.9016C105.405 43.9076 106.513 43.3056 107.488 42.8963C108.463 42.487 109.578 41.9332 109.733 40.9426C109.74 40.7499 109.78 40.5595 109.851 40.3785C109.959 40.2168 110.109 40.0841 110.289 39.9932C113.133 38.2355 116.03 36.4538 119.283 35.4941C119.453 35.4425 119.471 35.4975 119.644 35.4597C119.887 35.329 119.725 34.9678 119.493 34.8234C119.261 34.6789 118.952 34.5654 118.893 34.3109C118.853 34.1251 118.97 33.9394 119 33.7502C119.008 33.6359 118.985 33.5216 118.935 33.4173C118.884 33.3131 118.807 33.2219 118.71 33.152C118.613 33.0821 118.499 33.0354 118.378 33.0162C118.257 32.9969 118.134 33.0057 118.017 33.0416C117.756 32.7183 118.271 32.3434 118.691 32.2333C119.947 31.9117 121.236 31.7157 122.537 31.6485C122.687 31.6254 122.841 31.6496 122.975 31.7173C123.07 31.8036 123.127 31.9208 123.133 32.0448C123.139 32.1689 123.094 32.2905 123.008 32.3846C122.831 32.5684 122.635 32.7355 122.423 32.8834C122.211 33.0751 122.061 33.3172 121.987 33.5835C121.913 33.8498 121.918 34.1299 122.003 34.3934C122.684 34.7167 123.42 35.0504 124.174 34.9369C124.925 34.8234 125.591 34.0322 125.238 33.4028C124.91 32.8146 123.92 32.6804 123.751 32.0372C123.552 31.2839 124.693 30.6132 124.436 29.8771C124.325 29.5538 123.979 29.3611 123.714 29.1307C123.402 28.8437 123.19 28.4756 123.106 28.0744C123.021 27.6731 123.068 27.2573 123.24 26.8811C122.809 26.9515 122.366 26.9245 121.949 26.8024C121.531 26.6804 121.151 26.4668 120.84 26.1794C120.266 25.6394 119.81 24.7829 118.992 24.8104C118.245 24.8311 117.601 25.6463 116.902 25.3986C116.729 25.3367 116.549 25.2129 116.383 25.2851C116.329 25.318 116.283 25.3619 116.249 25.4138C116.215 25.4656 116.194 25.5239 116.188 25.5844C116.011 26.3789 116.317 27.2836 115.853 27.9715C115.349 28.7179 114.182 28.8211 113.571 29.4953C113.24 29.8599 113.111 30.3518 112.806 30.737C112.5 31.1223 111.856 31.3699 111.488 31.0328C111.669 30.6875 111.718 30.2952 111.628 29.9202C111.539 29.5453 111.315 29.2099 110.995 28.969C110.656 28.7611 110.29 28.5946 109.906 28.4737C109.476 28.3044 109.068 28.0922 108.688 27.8408C108.498 27.7329 108.344 27.5782 108.242 27.3937C108.162 27.1617 108.172 26.9105 108.272 26.6851C108.458 26.1883 108.786 25.7484 109.22 25.4126C109.653 25.0769 110.177 24.858 110.734 24.7795C111.22 24.7176 111.786 24.7382 112.11 24.3908C112.28 24.2085 112.368 23.9299 112.618 23.8577C112.776 23.8269 112.94 23.845 113.086 23.9093C113.693 24.1088 114.296 24.3083 114.904 24.5078C115.106 24.5946 115.33 24.629 115.551 24.6075C115.661 24.5943 115.761 24.5425 115.832 24.4626C115.902 24.3828 115.938 24.2808 115.93 24.1776C115.872 23.8955 115.408 23.7614 115.452 23.4759C115.473 23.3826 115.526 23.2982 115.603 23.2351C116.259 22.5826 117.062 22.0737 117.953 21.7448C118.845 21.416 119.803 21.2754 120.759 21.3329C120.987 21.6872 120.627 22.1034 120.321 22.4027C120.019 22.7054 119.776 23.242 120.144 23.4724C120.293 23.5452 120.459 23.5808 120.627 23.5756C121.074 23.6317 121.509 23.7548 121.915 23.9402C122.544 24.1948 123.162 24.4768 123.766 24.7795C123.677 24.4107 123.692 24.0267 123.81 23.6651C123.877 23.4875 124.011 23.3395 124.188 23.2499C124.365 23.1602 124.571 23.1353 124.767 23.1801C125.128 23.3108 125.312 23.7579 125.698 23.7992C126.21 23.8542 126.412 23.1457 126.199 22.7054C125.985 22.2651 125.558 21.9005 125.525 21.4155C125.499 21.0922 125.632 20.6897 125.356 20.4937C125.258 20.4329 125.145 20.3951 125.028 20.3836C122.717 19.988 120.405 19.5913 118.091 19.1935C117.679 19.1212 117.086 19.1763 117.068 19.565C117.057 19.7851 117.266 20.0018 117.174 20.2013C117.075 20.4146 116.751 20.3974 116.516 20.473C116.339 20.5481 116.193 20.6749 116.1 20.8344C116.007 20.9939 115.972 21.1774 116 21.357C116.063 21.7147 116.212 22.0545 116.435 22.3511C115.982 22.1757 115.301 22.1447 114.848 21.9658C114.783 21.476 114.649 20.9961 114.451 20.5384C114.44 20.4655 114.411 20.3959 114.368 20.3343C114.325 20.2728 114.268 20.2209 114.201 20.1822C114.134 20.1435 114.059 20.119 113.98 20.1104C113.902 20.1018 113.823 20.1094 113.748 20.1325C113.152 20.2185 112.556 20.301 111.959 20.387C111.81 20.3937 111.666 20.4456 111.551 20.5349C111.319 20.7654 111.547 21.1334 111.54 21.4499C111.518 21.6268 111.438 21.7931 111.311 21.9256C111.184 22.0582 111.015 22.1504 110.83 22.1894C110.455 22.2605 110.068 22.2558 109.696 22.1757C108.861 22.0553 108.029 21.9349 107.193 21.8145C107.931 21.5949 108.587 21.1847 109.085 20.6313C109.416 20.2666 109.593 19.5856 109.115 19.4136C108.973 19.3773 108.826 19.3668 108.68 19.3827C107.547 19.3895 106.652 18.5055 105.592 18.1306C105.259 18.0144 104.907 17.9539 104.551 17.9517L103.366 19.3104Z" fill="#3F3D56"/>
<path id="Vector_3" d="M199.93 53.1362C199.8 53.299 199.63 53.4297 199.433 53.5166C199.237 53.6036 199.021 53.6442 198.804 53.635C197.652 53.5421 197.166 51.9908 196.025 51.8154C195.924 51.7912 195.818 51.8009 195.723 51.8429C195.554 51.9289 195.525 52.1421 195.514 52.321C195.466 53.2084 195.425 54.1303 195.797 54.9489C196.338 56.1459 197.74 57.1503 197.446 58.4196C195.863 57.735 195.039 56.0737 194.667 54.4811C194.292 52.8885 194.233 51.2169 193.563 49.7103C193.052 50.3191 191.984 49.8169 191.521 49.1771C191.079 48.5718 190.807 47.8701 190.38 47.2544C189.953 46.6421 189.298 46.0917 188.517 46.0573C187.697 46.0229 186.983 46.5492 186.357 47.048C185.813 47.4237 185.356 47.8988 185.014 48.4445C184.576 49.27 184.69 50.24 184.668 51.1584C184.646 52.149 184.421 53.1981 183.696 53.9273C182.971 54.6531 181.635 54.9076 180.837 54.2507C180.45 53.8744 180.175 53.4111 180.038 52.9058C179.17 50.5409 178.447 48.1315 177.874 45.6893C177.741 46.2465 177.215 46.9654 176.715 46.6387C176.603 46.5497 176.512 46.4395 176.45 46.3153C175.515 44.8397 173.789 43.9523 172.041 43.4191C170.296 42.8894 168.46 42.6418 166.734 42.057C165.766 41.7285 164.841 41.2981 163.977 40.774C163.758 41.0761 163.63 41.4279 163.606 41.7923C163.583 42.1568 163.665 42.5203 163.845 42.8447C164.039 43.1621 164.339 43.4107 164.7 43.5519C165.061 43.6931 165.461 43.7189 165.839 43.6255C166.222 43.5086 166.546 43.2609 166.925 43.1371C167.304 43.0167 167.816 43.0752 167.981 43.4191C168.143 43.7459 167.9 44.1415 168.022 44.4854C168.202 45.0048 169.045 45.0461 169.339 45.5208C169.426 45.7087 169.446 45.9177 169.396 46.117C169.346 46.3163 169.23 46.4955 169.063 46.6283C168.725 46.8864 168.351 47.1016 167.952 47.2681C166.715 47.9114 165.836 49.0086 164.754 49.8617C163.672 50.7181 162.144 51.3407 160.856 50.7938C161.162 49.3388 159.31 48.2725 158.968 46.8244C158.854 46.3463 158.913 45.8407 158.755 45.3763C158.523 44.7021 157.882 44.2412 157.36 43.7321C156.725 43.1072 156.23 42.3698 155.905 41.5635C155.579 40.7572 155.429 39.8982 155.464 39.037C155.494 38.4385 155.612 37.8296 155.464 37.2449C155.321 36.6636 154.802 36.0995 154.162 36.1236C152.701 36.1855 150.857 36.2887 150.091 35.1226C149.815 34.7064 149.697 34.0976 150.095 33.7777C150.375 33.5541 150.787 33.5748 151.151 33.6092C152.252 33.7089 153.348 33.8121 154.449 33.9119C155.218 33.9806 156.05 34.0391 156.712 33.6642C157.375 33.2893 157.662 32.2883 157.047 31.8446C156.602 31.5213 155.799 31.5385 155.667 31.026C155.56 30.596 156.068 30.111 155.792 29.7498C155.597 29.4953 155.155 29.5641 154.887 29.7567C154.652 29.9842 154.397 30.1925 154.125 30.3793C153.599 30.6338 152.973 30.3896 152.406 30.2245C151.839 30.0594 151.081 30.0456 150.809 30.5375C150.5 31.0844 151.078 31.8068 150.776 32.3571C150.371 33.0829 149.009 32.6701 148.442 33.2962C147.795 34.0116 148.884 35.0848 148.667 35.9997C148.387 36.1293 148.077 36.1889 147.765 36.1726C147.453 36.1563 147.152 36.0648 146.889 35.9069C146.632 35.7432 146.427 35.5172 146.296 35.2531C146.165 34.989 146.113 34.6966 146.146 34.4072C146.197 33.9944 146.429 33.5713 146.275 33.1826C146.108 32.8825 145.833 32.6473 145.498 32.5188C144.431 31.965 143.364 31.4135 142.296 30.8643C141.998 31.3802 142.374 32.0166 142.845 32.4053C143.312 32.7905 143.901 33.0829 144.21 33.592C144.406 33.9448 144.45 34.3541 144.334 34.7364C144.217 35.1187 143.949 35.4451 143.584 35.6489C143.538 35.6786 143.486 35.6986 143.43 35.7075C143.375 35.7164 143.318 35.714 143.264 35.7005C143.213 35.6725 143.169 35.6353 143.133 35.591C143.098 35.5467 143.072 35.4962 143.058 35.4425C142.495 34.0907 141.645 32.7596 140.29 32.0544C138.932 31.3458 136.986 31.4938 136.095 32.6804C135.885 32.9625 135.742 33.2858 135.558 33.5851C134.582 35.1708 132.484 35.9206 130.527 35.8725C130.335 35.8839 130.144 35.842 129.978 35.7521C129.662 35.5491 129.676 35.1157 129.724 34.758C129.794 34.2524 129.86 33.7502 129.93 33.2446C129.932 32.9358 130.06 32.6393 130.287 32.4156C130.652 32.1473 131.174 32.3158 131.638 32.309C131.988 32.2944 132.325 32.1792 132.602 31.9791C132.879 31.779 133.084 31.5038 133.187 31.1911C133.281 30.8755 133.28 30.542 133.185 30.2268C133.091 29.9116 132.906 29.6265 132.65 29.4024C132.44 29.2167 132.157 28.9828 132.267 28.7317C132.312 28.6625 132.373 28.6033 132.444 28.5582C132.516 28.513 132.598 28.483 132.683 28.4703C133.511 28.2467 134.391 28.1882 135.204 27.9199C136.021 27.6551 136.813 27.1116 137.008 26.3239C137.066 26.0831 137.092 25.7908 137.324 25.6704C137.441 25.6265 137.566 25.6032 137.692 25.6016C138.135 25.5423 138.537 25.3305 138.821 25.0079C139.105 24.6852 139.25 24.2749 139.227 23.8577C139.617 23.6031 140.165 23.7923 140.544 24.0641C140.92 24.3358 141.255 24.6935 141.715 24.8105C142.572 25.0306 143.4 24.3186 144.291 24.3151C144.666 24.3151 145.053 24.439 145.402 24.3186C145.759 24.1982 145.973 23.868 146.245 23.6238C146.521 23.3761 147 23.2282 147.254 23.4931C147.18 22.9943 147.11 22.499 147.036 22.0037C147.47 22.1057 147.922 22.1199 148.362 22.0451C148.802 21.9704 149.22 21.8084 149.587 21.5703C148.66 21.2779 147.736 20.9855 146.808 20.6932C146.711 20.6707 146.621 20.6258 146.547 20.5625C146.345 20.3595 146.547 20.0431 146.709 19.8126C147.103 19.2588 147.169 18.3473 146.521 18.0721C146.08 17.8829 145.575 18.11 145.152 18.3301C144.475 18.6809 143.798 19.0352 143.121 19.3861C143.058 19.7473 143.529 19.9536 143.82 20.1944C143.997 20.3413 144.123 20.5349 144.18 20.7497C144.237 20.9645 144.223 21.1904 144.14 21.3978C144.057 21.6051 143.909 21.7842 143.716 21.9114C143.522 22.0386 143.291 22.1079 143.054 22.1103C143.188 22.273 143.28 22.4616 143.326 22.6622C143.371 22.8628 143.367 23.0703 143.316 23.2695C142.863 23.3004 142.407 23.3314 141.95 23.3624C141.874 23.3765 141.796 23.3765 141.721 23.3623C141.645 23.3481 141.573 23.3201 141.509 23.2798C141.361 23.1594 141.384 22.9462 141.347 22.7673C141.286 22.5535 141.158 22.3616 140.98 22.2163C140.801 22.071 140.581 21.979 140.346 21.9521C139.877 21.9028 139.402 21.9438 138.951 22.0725C138.755 22.1371 138.54 22.1322 138.347 22.0587C138.238 21.9912 138.155 21.8921 138.112 21.7767C138.032 21.5408 138.018 21.2896 138.072 21.0474C138.126 20.8051 138.246 20.5801 138.421 20.3939C138.774 20.0271 139.164 19.692 139.584 19.393C140.536 18.6138 141.236 17.601 141.604 16.4692C142.355 16.1734 143.132 15.7744 143.886 15.4786C144.493 15.2159 145.128 15.0163 145.782 14.8835C146.396 14.7958 147.019 14.7681 147.64 14.801C148.487 14.8148 149.337 14.8285 150.183 14.8457C150.939 14.816 151.694 14.9175 152.41 15.145C153.105 15.4133 153.72 15.9946 153.768 16.6963C153.782 16.7762 153.775 16.8583 153.746 16.9348C153.717 17.0112 153.667 17.0795 153.602 17.1331C153.504 17.1836 153.394 17.2074 153.282 17.2019C152.579 17.2225 152.281 17.3876 151.578 17.4117C152.023 17.8554 152.524 18.3232 153.172 18.4023C154.312 18.5399 155.133 17.4358 155.659 16.4761C155.678 16.7204 155.799 16.9481 155.994 17.1107C156.19 17.2733 156.447 17.3579 156.708 17.3464C156.99 17.3011 157.26 17.2028 157.5 17.0574C159.763 15.9012 162.299 15.2889 164.879 15.2757C164.853 15.0931 164.901 14.9083 165.014 14.7571C165.126 14.6058 165.294 14.4989 165.486 14.457C166.012 14.3607 166.483 14.7838 166.737 15.2241C166.988 15.6644 167.146 16.1734 167.551 16.5036C167.952 16.8338 168.728 16.8167 168.887 16.342C169.041 15.8845 168.53 15.4924 168.106 15.2206C167.679 14.9523 167.234 14.4536 167.521 14.0546C169.685 13.604 171.868 13.1568 174.087 13.0674C174.464 13.0781 174.84 13.0172 175.191 12.8885C175.365 12.8197 175.51 12.6991 175.603 12.5455C175.696 12.3918 175.732 12.2138 175.706 12.0389C175.222 12.1445 174.715 12.1133 174.25 11.9492C173.785 11.7851 173.382 11.4954 173.093 11.1171C175.371 10.9417 177.756 10.7869 179.946 11.265L181.863 12.7853C181.499 13.1396 181.013 13.4733 181.278 13.8275C181.366 13.9089 181.472 13.9707 181.588 14.0082C181.705 14.0458 181.829 14.0581 181.952 14.0442C182.415 14.0511 182.879 14.0614 183.339 14.0614C192.859 22.5717 198.718 34.0427 199.812 46.3119C199.039 46.2844 198.329 47.1994 198.428 47.9974C198.546 48.9227 199.26 49.6656 199.772 50.4636C199.856 50.5933 199.933 50.7277 200 50.8661L199.93 53.1362Z" fill="#3F3D56"/>
</g>
<g id="woman">
<path id="Vector_4" d="M128.401 100.332C133.536 100.332 137.698 96.4418 137.698 91.6429C137.698 86.8439 133.536 82.9536 128.401 82.9536C123.267 82.9536 119.104 86.8439 119.104 91.6429C119.104 96.4418 123.267 100.332 128.401 100.332Z" fill="#2F2E41"/>
<path id="Vector_5" d="M123.963 96.0328C123.963 96.0328 120.935 102.3 120.07 102.502C119.204 102.704 127.208 106.343 127.208 106.343C127.208 106.343 128.722 98.6609 129.371 98.2566C130.02 97.8522 123.963 96.0328 123.963 96.0328Z" fill="#FFB9B9"/>
<path id="Vector_6" d="M106.01 147.382L100.386 162.14L106.442 164.363L116.825 145.158L106.01 147.382Z" fill="#FFB9B9"/>
<path id="Vector_7" d="M125.694 147.786C125.694 147.786 136.941 162.544 137.59 162.746C138.239 162.948 142.782 159.309 142.782 159.309C142.782 159.309 137.158 146.573 135.427 145.967C133.697 145.36 125.694 147.786 125.694 147.786Z" fill="#FFB9B9"/>
<path id="Vector_8" d="M99.5207 159.512L90.6522 181.143C90.6522 181.143 91.3011 182.356 90.6522 182.558C90.0033 182.76 88.4892 185.995 88.4892 186.197C88.4892 186.399 86.9751 186.601 86.9751 187.208C86.9751 187.814 85.6772 192.666 85.6772 192.666C85.6772 192.666 88.0566 197.518 89.5707 196.103C91.0849 194.688 91.7337 191.857 91.7337 191.857L93.8968 186.601C93.8968 186.601 93.6805 183.771 95.1946 183.367C96.7088 182.962 97.574 177.908 97.574 177.908C97.574 177.908 99.9533 175.684 100.386 175.078C100.819 174.471 108.389 163.757 107.74 163.555C107.091 163.353 99.5207 159.512 99.5207 159.512Z" fill="#2F2E41"/>
<path id="Vector_9" d="M136.293 162.342L142.782 158.299C142.782 158.299 154.03 177.504 154.03 177.908C154.03 178.313 153.597 179.526 154.03 179.93C154.462 180.334 158.139 186.803 160.519 187.41C162.898 188.016 163.331 190.442 161.384 190.847C159.437 191.251 156.841 192.262 156.193 190.847C155.813 190.014 155.38 189.204 154.895 188.421C154.895 188.421 152.732 189.027 152.515 188.623C152.266 188.027 152.049 187.42 151.866 186.803C151.866 186.803 150.136 183.973 150.136 182.962C150.136 181.951 149.054 181.749 149.054 181.749C149.054 181.749 146.675 176.493 145.161 175.684C143.647 174.876 142.349 170.833 142.349 170.833L136.293 162.342Z" fill="#2F2E41"/>
<path id="Vector_10" d="M128.506 100.682C131.97 100.682 134.778 98.0577 134.778 94.8198C134.778 91.5819 131.97 88.9571 128.506 88.9571C125.041 88.9571 122.233 91.5819 122.233 94.8198C122.233 98.0577 125.041 100.682 128.506 100.682Z" fill="#FFB9B9"/>
<path id="Vector_11" d="M109.903 130.4C109.903 130.4 100.619 153.451 101.917 153.451C103.215 153.451 139.12 154.181 140.201 152.564C141.283 150.946 130.885 134.848 130.452 134.646C130.02 134.443 109.903 130.4 109.903 130.4Z" fill="#2F2E41"/>
<path id="Vector_12" d="M100.602 82.2858L94.1131 72.9864C94.1131 72.9864 95.7178 63.2312 93.5548 65.0506C91.3917 66.8701 90.7072 74.2176 90.7072 74.2176L98.2229 84.9139L100.602 82.2858Z" fill="#FFB9B9"/>
<path id="Vector_13" d="M159.437 99.2674L165.277 98.8631C165.277 98.8631 172.199 91.9896 172.632 94.2133C173.064 96.4371 167.008 101.289 167.008 101.289L159.004 102.098L159.437 99.2674Z" fill="#FFB9B9"/>
<path id="Vector_14" d="M116.825 101.289V99.2674C116.825 99.2674 111.201 95.8306 111.417 95.2242C111.634 94.6177 110.985 94.2133 110.985 94.2133C110.985 94.2133 110.336 93.4047 110.336 93.2025C110.336 93.0004 109.471 92.7982 109.471 92.7982L104.063 86.9355C104.063 86.9355 101.035 81.275 100.386 81.4772C99.737 81.6793 96.2761 82.8923 96.7087 83.7009C97.1413 84.5096 109.254 101.895 109.254 101.895C109.254 101.895 109.903 105.737 110.985 105.737C112.066 105.737 116.825 101.289 116.825 101.289Z" fill="#3F3D56"/>
<path id="Vector_15" d="M131.317 103.715C131.317 103.715 136.076 103.513 136.293 103.715C136.509 103.917 139.537 103.715 139.537 103.715C139.537 103.715 147.757 101.895 148.406 101.289C149.054 100.683 159.87 98.0544 160.302 99.2674C160.735 100.48 161.816 102.906 160.735 103.311C159.653 103.715 130.452 110.588 130.452 110.588L131.317 103.715Z" fill="#3F3D56"/>
<path id="Vector_16" d="M125.149 86.093C127.274 86.093 128.996 84.4832 128.996 82.4975C128.996 80.5117 127.274 78.9019 125.149 78.9019C123.024 78.9019 121.302 80.5117 121.302 82.4975C121.302 84.4832 123.024 86.093 125.149 86.093Z" fill="#2F2E41"/>
<path id="Vector_17" d="M120.019 80.5499C120.02 79.6611 120.372 78.8038 121.008 78.1435C121.645 77.4831 122.52 77.0664 123.466 76.9737C123.333 76.9608 123.199 76.9543 123.065 76.9543C122.045 76.9543 121.066 77.3331 120.345 78.0074C119.623 78.6817 119.218 79.5963 119.218 80.5499C119.218 81.5035 119.623 82.418 120.345 83.0923C121.066 83.7666 122.045 84.1454 123.065 84.1454C123.199 84.1454 123.333 84.1389 123.466 84.126C122.52 84.0333 121.645 83.6166 121.008 82.9562C120.372 82.2959 120.02 81.4386 120.019 80.5499Z" fill="#2F2E41"/>
<path id="Vector_18" d="M129.483 93.3961C133.024 93.3961 135.895 91.7863 135.895 89.8005C135.895 87.8147 133.024 86.2049 129.483 86.2049C125.942 86.2049 123.071 87.8147 123.071 89.8005C123.071 91.7863 125.942 93.3961 129.483 93.3961Z" fill="#2F2E41"/>
<path id="Vector_19" d="M122.125 99.1663C122.125 99.1663 120.178 100.581 119.745 100.784C119.313 100.986 116.717 98.9641 116.284 98.9641C115.852 98.9641 110.228 105.029 110.228 105.029C110.228 105.029 111.273 106.154 110.228 111.902C109.836 114.058 109.058 123.275 109.058 124.488C109.058 125.701 104.82 128.682 108.714 131.31C112.607 133.938 131.209 136.768 131.426 135.151C131.642 133.534 129.263 129.288 130.344 127.267C131.426 125.245 131.426 117.765 131.426 117.765L132.723 109.881L133.805 103.614C133.805 103.614 128.722 102.3 128.289 102.3C127.857 102.3 125.91 105.13 122.125 99.1663Z" fill="#3F3D56"/>
</g>
<g id="background">
<path id="Vector_20" d="M199.143 199.372H0V200H199.143V199.372Z" fill="#3F3D56"/>
</g>
<g id="flower">
<path id="Vector_21" d="M33.6586 151.909C33.6586 151.909 34.362 137.77 48.7816 139.413L33.6586 151.909Z" fill="#E6E6E6"/>
<path id="Vector_22" d="M33.4892 199.821C33.4712 199.673 31.7692 184.939 38.6606 177.142C41.2039 174.264 44.6119 172.653 48.7897 172.352L48.8357 172.908C44.8258 173.196 41.5573 174.74 39.121 177.496C32.3909 185.109 34.0637 199.612 34.0812 199.758L33.4892 199.821Z" fill="#E6E6E6"/>
<path id="Vector_23" d="M33.5064 137.452H32.9066V199.4H33.5064V137.452Z" fill="#E6E6E6"/>
<path id="Vector_24" d="M33.6586 137.77C36.3779 137.77 38.5824 135.709 38.5824 133.168C38.5824 130.626 36.3779 128.566 33.6586 128.566C30.9393 128.566 28.7348 130.626 28.7348 133.168C28.7348 135.709 30.9393 137.77 33.6586 137.77Z" fill="#29FFA6"/>
<path id="Vector_25" d="M48.8128 177.203C51.5149 177.203 53.7054 175.155 53.7054 172.63C53.7054 170.105 51.5149 168.057 48.8128 168.057C46.1106 168.057 43.9201 170.105 43.9201 172.63C43.9201 175.155 46.1106 177.203 48.8128 177.203Z" fill="#E6E6E6"/>
</g>
</g>
<defs>
<clipPath id="clip0">
<rect width="200" height="200" fill="white"/>
</clipPath>
</defs>
</svg>
