<svg width="300" height="200" viewBox="0 0 300 200" fill="none" xmlns="http://www.w3.org/2000/svg">
<g id="search-svg">
<g id="globe">
<path id="Vector" d="M261.898 68.8043C251.041 61.2876 234.035 54.1788 215.242 49.3009C198.131 44.8595 181.441 42.7152 168.244 43.2627L168.175 41.8415C181.529 41.2876 198.392 43.45 215.657 47.931C234.625 52.8544 251.815 60.0471 262.818 67.6648L261.898 68.8043Z" fill="#CFE0E6"/>
<path id="Vector_2" d="M260.771 74.594C260.781 81.2537 259.273 87.8403 256.347 93.9237C256.102 94.433 255.848 94.9376 255.583 95.4374C250.493 105.092 242.021 112.864 231.548 117.487C221.075 122.109 209.22 123.31 197.917 120.891C186.613 118.473 176.527 112.58 169.305 104.172C162.083 95.7636 158.15 85.3376 158.148 74.594C158.148 73.4943 158.189 72.4031 158.27 71.3205C158.308 70.7699 158.358 70.2227 158.419 69.6787C159.78 57.5677 166.109 46.4025 176.1 38.4872C186.092 30.5718 198.984 26.5104 212.115 27.141C225.246 27.7716 237.614 33.0461 246.668 41.876C255.722 50.706 260.77 62.4176 260.771 74.594Z" fill="#29FFA6"/>
<path id="Vector_3" opacity="0.1" d="M256.346 93.9237C256.102 94.433 255.848 94.9376 255.583 95.4374C254.083 95.5882 252.505 95.6977 250.848 95.766C249.476 95.8229 248.064 95.8514 246.622 95.8514C234.021 95.8514 218.857 93.6975 203.365 89.677C186.101 85.1957 170.481 78.9274 159.383 72.0261C159.005 71.7914 158.634 71.5562 158.27 71.3205C158.308 70.7699 158.358 70.2227 158.419 69.6788C159.007 70.0671 159.614 70.456 160.239 70.8453C171.206 77.6641 186.669 83.8655 203.78 88.307C219.136 92.2933 234.158 94.4287 246.614 94.4287C248.038 94.4287 249.427 94.4008 250.779 94.3448C252.748 94.2623 254.604 94.1219 256.346 93.9237Z" fill="black"/>
<path id="Vector_4" d="M246.622 94.7135C234.022 94.7138 218.857 92.5596 203.366 88.5388C186.101 84.0577 170.481 77.7893 159.383 70.8881C148.054 63.843 142.741 56.901 144.424 51.341C146.107 45.7809 154.542 42.4073 168.175 41.8415L168.244 43.2627C161.877 43.5269 156.688 44.4032 152.822 45.8673C148.965 47.3277 146.637 49.2985 145.903 51.725C145.169 54.1514 146.051 56.9555 148.527 60.0595C151.008 63.1711 154.949 66.417 160.24 69.707C171.206 76.5261 186.669 82.7276 203.78 87.169C219.137 91.1549 234.158 93.2909 246.615 93.2911C248.038 93.2911 249.426 93.2631 250.779 93.2071C257.145 92.9428 262.334 92.0666 266.2 90.6025C270.057 89.1421 272.385 87.1713 273.119 84.7449C274.438 80.388 270.453 74.7268 261.898 68.8042L262.818 67.6649C267.22 70.7126 270.479 73.7168 272.504 76.5938C274.674 79.6782 275.379 82.5499 274.599 85.1289C272.916 90.6889 264.481 94.0625 250.848 94.6283C249.476 94.6853 248.065 94.7135 246.622 94.7135Z" fill="#CFE0E6"/>
</g>
<g id="stars">
<path id="Vector_5" d="M210.817 18.5075C211.142 18.5075 211.405 18.2637 211.405 17.963C211.405 17.6623 211.142 17.4185 210.817 17.4185C210.492 17.4185 210.229 17.6623 210.229 17.963C210.229 18.2637 210.492 18.5075 210.817 18.5075Z" fill="#F2F2F2"/>
<path id="Vector_6" d="M132.812 42.135C133.371 42.135 133.824 41.7156 133.824 41.1983C133.824 40.6809 133.371 40.2615 132.812 40.2615C132.253 40.2615 131.801 40.6809 131.801 41.1983C131.801 41.7156 132.253 42.135 132.812 42.135Z" fill="#CFE0E6"/>
<path id="Vector_7" d="M130.656 79.7115C131.76 79.7115 132.654 78.883 132.654 77.861C132.654 76.839 131.76 76.0105 130.656 76.0105C129.553 76.0105 128.658 76.839 128.658 77.861C128.658 78.883 129.553 79.7115 130.656 79.7115Z" fill="#CFE0E6"/>
<path id="Vector_8" d="M250.604 22.4633C251.339 22.4633 251.935 21.9111 251.935 21.23C251.935 20.5489 251.339 19.9967 250.604 19.9967C249.868 19.9967 249.272 20.5489 249.272 21.23C249.272 21.9111 249.868 22.4633 250.604 22.4633Z" fill="#CFE0E6"/>
<path id="Vector_9" d="M297.838 74.4184C299.032 74.4184 300 73.5219 300 72.416C300 71.3101 299.032 70.4136 297.838 70.4136C296.643 70.4136 295.675 71.3101 295.675 72.416C295.675 73.5219 296.643 74.4184 297.838 74.4184Z" fill="#CFE0E6"/>
<path id="Vector_10" d="M280.93 41.2937C281.442 41.2937 281.857 40.909 281.857 40.4346C281.857 39.9601 281.442 39.5754 280.93 39.5754C280.417 39.5754 280.002 39.9601 280.002 40.4346C280.002 40.909 280.417 41.2937 280.93 41.2937Z" fill="#CFE0E6"/>
<path id="Vector_11" d="M168.287 30.7377C169.086 30.7377 169.734 30.1376 169.734 29.3974C169.734 28.6572 169.086 28.0572 168.287 28.0572C167.487 28.0572 166.839 28.6572 166.839 29.3974C166.839 30.1376 167.487 30.7377 168.287 30.7377Z" fill="#CFE0E6"/>
<path id="Vector_12" d="M277.683 69.2149C278.195 69.2149 278.61 68.8303 278.61 68.3558C278.61 67.8813 278.195 67.4967 277.683 67.4967C277.17 67.4967 276.755 67.8813 276.755 68.3558C276.755 68.8303 277.17 69.2149 277.683 69.2149Z" fill="#CFE0E6"/>
<path id="Vector_13" d="M135.36 105.066C135.998 105.066 136.515 104.587 136.515 103.997C136.515 103.406 135.998 102.928 135.36 102.928C134.722 102.928 134.205 103.406 134.205 103.997C134.205 104.587 134.722 105.066 135.36 105.066Z" fill="#CFE0E6"/>
<path id="Vector_14" d="M158.683 120.038C159.374 120.038 159.934 119.519 159.934 118.88C159.934 118.24 159.374 117.722 158.683 117.722C157.992 117.722 157.433 118.24 157.433 118.88C157.433 119.519 157.992 120.038 158.683 120.038Z" fill="#CFE0E6"/>
<path id="Vector_15" d="M195.034 2.28515H192.566V0H191.242V2.28515H188.773V3.51215H191.242V5.79729H192.566V3.51215H195.034V2.28515Z" fill="#CFE0E6"/>
<path id="Vector_16" d="M252.275 125.933H250.725V124.498H249.894V125.933H248.344V126.703H249.894V128.137H250.725V126.703H252.275V125.933Z" fill="#CFE0E6"/>
<path id="Vector_17" d="M288.038 118.588H286.879V117.516H286.257V118.588H285.099V119.164H286.257V120.237H286.879V119.164H288.038V118.588Z" fill="#CFE0E6"/>
</g>
<g id="marks">
<path id="Vector_18" opacity="0.1" d="M210.229 41.3797C212.61 41.3797 214.541 39.592 214.541 37.3868C214.541 35.1815 212.61 33.3938 210.229 33.3938C207.848 33.3938 205.917 35.1815 205.917 37.3868C205.917 39.592 207.848 41.3797 210.229 41.3797Z" fill="black"/>
<path id="Vector_19" opacity="0.1" d="M177.106 70.601C179.488 70.601 181.418 68.8133 181.418 66.6081C181.418 64.4028 179.488 62.6151 177.106 62.6151C174.725 62.6151 172.794 64.4028 172.794 66.6081C172.794 68.8133 174.725 70.601 177.106 70.601Z" fill="black"/>
<path id="Vector_20" opacity="0.1" d="M224.732 110.712C227.114 110.712 229.044 108.925 229.044 106.719C229.044 104.514 227.114 102.726 224.732 102.726C222.351 102.726 220.421 104.514 220.421 106.719C220.421 108.925 222.351 110.712 224.732 110.712Z" fill="black"/>
<path id="Vector_21" opacity="0.1" d="M210.229 76.772C212.61 76.772 214.541 74.9843 214.541 72.779C214.541 70.5738 212.61 68.7861 210.229 68.7861C207.848 68.7861 205.917 70.5738 205.917 72.779C205.917 74.9843 207.848 76.772 210.229 76.772Z" fill="black"/>
<path id="Vector_22" opacity="0.1" d="M179.262 98.7333C181.644 98.7333 183.574 96.9456 183.574 94.7404C183.574 92.5351 181.644 90.7474 179.262 90.7474C176.881 90.7474 174.95 92.5351 174.95 94.7404C174.95 96.9456 176.881 98.7333 179.262 98.7333Z" fill="black"/>
<path id="Vector_23" opacity="0.1" d="M233.356 55.3552C235.738 55.3552 237.668 53.5674 237.668 51.3622C237.668 49.1569 235.738 47.3692 233.356 47.3692C230.975 47.3692 229.044 49.1569 229.044 51.3622C229.044 53.5674 230.975 55.3552 233.356 55.3552Z" fill="black"/>
<path id="Vector_24" opacity="0.1" d="M247.664 82.3985C250.045 82.3985 251.975 80.6107 251.975 78.4055C251.975 76.2002 250.045 74.4125 247.664 74.4125C245.282 74.4125 243.352 76.2002 243.352 78.4055C243.352 80.6107 245.282 82.3985 247.664 82.3985Z" fill="black"/>
<path id="Vector_25" d="M210.229 60.6186C213.368 60.6186 215.913 58.2621 215.913 55.3552C215.913 52.4482 213.368 50.0917 210.229 50.0917C207.09 50.0917 204.545 52.4482 204.545 55.3552C204.545 58.2621 207.09 60.6186 210.229 60.6186Z" fill="white"/>
<path id="Vector_26" d="M210.229 47.7322C208.098 47.7322 206.054 48.5162 204.547 49.9118C203.04 51.3073 202.193 53.2 202.193 55.1736C202.193 59.2834 210.229 72.779 210.229 72.779C210.229 72.779 218.265 59.2834 218.265 55.1736C218.265 53.2 217.418 51.3073 215.911 49.9118C214.404 48.5162 212.36 47.7322 210.229 47.7322ZM210.229 58.8036C209.493 58.8036 208.773 58.6014 208.16 58.2224C207.548 57.8435 207.07 57.3049 206.789 56.6748C206.507 56.0447 206.433 55.3513 206.577 54.6824C206.72 54.0134 207.075 53.399 207.596 52.9167C208.117 52.4344 208.78 52.106 209.503 51.9729C210.225 51.8399 210.974 51.9082 211.654 52.1692C212.335 52.4302 212.916 52.8722 213.325 53.4393C213.734 54.0064 213.953 54.6731 213.953 55.3551C213.953 55.808 213.857 56.2564 213.669 56.6748C213.482 57.0932 213.208 57.4734 212.862 57.7936C212.516 58.1138 212.106 58.3678 211.654 58.5411C211.202 58.7144 210.718 58.8036 210.229 58.8036Z" fill="#CFE0E6"/>
<path id="Vector_27" d="M179.262 83.1245C182.401 83.1245 184.946 80.7679 184.946 77.861C184.946 74.9541 182.401 72.5975 179.262 72.5975C176.123 72.5975 173.578 74.9541 173.578 77.861C173.578 80.7679 176.123 83.1245 179.262 83.1245Z" fill="white"/>
<path id="Vector_28" d="M179.262 70.238C177.131 70.238 175.087 71.022 173.58 72.4176C172.073 73.8131 171.227 75.7059 171.227 77.6795C171.227 81.7893 179.262 95.2848 179.262 95.2848C179.262 95.2848 187.298 81.7893 187.298 77.6795C187.298 76.7022 187.09 75.7346 186.686 74.8317C186.282 73.9289 185.691 73.1086 184.944 72.4176C184.198 71.7266 183.312 71.1784 182.337 70.8045C181.362 70.4305 180.318 70.238 179.262 70.238ZM179.262 81.3094C178.526 81.3094 177.806 81.1072 177.193 80.7283C176.581 80.3493 176.104 79.8108 175.822 79.1806C175.54 78.5505 175.466 77.8571 175.61 77.1882C175.754 76.5193 176.108 75.9048 176.629 75.4225C177.15 74.9402 177.813 74.6118 178.536 74.4787C179.258 74.3457 180.007 74.414 180.687 74.675C181.368 74.936 181.949 75.378 182.359 75.9451C182.768 76.5122 182.986 77.1789 182.986 77.861C182.986 78.3138 182.89 78.7623 182.703 79.1807C182.516 79.599 182.241 79.9792 181.895 80.2994C181.55 80.6196 181.139 80.8737 180.687 81.047C180.236 81.2203 179.751 81.3094 179.262 81.3094Z" fill="#CFE0E6"/>
<path id="Vector_29" d="M247.664 66.7896C250.803 66.7896 253.348 64.433 253.348 61.5261C253.348 58.6192 250.803 56.2626 247.664 56.2626C244.525 56.2626 241.98 58.6192 241.98 61.5261C241.98 64.433 244.525 66.7896 247.664 66.7896Z" fill="white"/>
<path id="Vector_30" d="M247.664 53.9032C246.608 53.9032 245.563 54.0956 244.588 54.4696C243.614 54.8436 242.728 55.3917 241.982 56.0827C241.235 56.7737 240.643 57.594 240.24 58.4969C239.836 59.3997 239.628 60.3674 239.628 61.3446C239.628 65.4544 247.664 78.95 247.664 78.95C247.664 78.95 255.699 65.4544 255.699 61.3446C255.699 60.3674 255.491 59.3997 255.088 58.4969C254.684 57.594 254.092 56.7737 253.346 56.0827C252.6 55.3917 251.714 54.8436 250.739 54.4696C249.764 54.0956 248.719 53.9032 247.664 53.9032ZM247.664 64.9746C246.927 64.9746 246.207 64.7723 245.595 64.3934C244.982 64.0145 244.505 63.4759 244.223 62.8458C243.941 62.2156 243.868 61.5223 244.011 60.8533C244.155 60.1844 244.51 59.5699 245.03 59.0876C245.551 58.6054 246.215 58.2769 246.937 58.1439C247.66 58.0108 248.408 58.0791 249.089 58.3401C249.769 58.6011 250.351 59.0431 250.76 59.6102C251.169 60.1773 251.387 60.8441 251.387 61.5261C251.387 61.979 251.291 62.4274 251.104 62.8458C250.917 63.2642 250.643 63.6443 250.297 63.9645C249.951 64.2848 249.54 64.5388 249.089 64.7121C248.637 64.8854 248.153 64.9746 247.664 64.9746Z" fill="#CFE0E6"/>
<path id="Vector_31" d="M210.229 25.2264C213.368 25.2264 215.913 22.8698 215.913 19.9629C215.913 17.056 213.368 14.6995 210.229 14.6995C207.09 14.6995 204.545 17.056 204.545 19.9629C204.545 22.8698 207.09 25.2264 210.229 25.2264Z" fill="white"/>
<path id="Vector_32" d="M210.229 12.34C208.098 12.34 206.054 13.124 204.547 14.5195C203.04 15.9151 202.193 17.8078 202.193 19.7814C202.193 23.8912 210.229 37.3868 210.229 37.3868C210.229 37.3868 218.265 23.8912 218.265 19.7814C218.265 17.8078 217.418 15.9151 215.911 14.5195C214.404 13.124 212.36 12.34 210.229 12.34ZM210.229 23.4114C209.493 23.4114 208.773 23.2091 208.16 22.8302C207.548 22.4513 207.07 21.9127 206.789 21.2826C206.507 20.6525 206.433 19.9591 206.577 19.2901C206.72 18.6212 207.075 18.0067 207.596 17.5245C208.117 17.0422 208.78 16.7138 209.503 16.5807C210.225 16.4476 210.974 16.5159 211.654 16.7769C212.335 17.0379 212.916 17.4799 213.325 18.047C213.734 18.6141 213.953 19.2809 213.953 19.9629C213.953 20.4158 213.857 20.8642 213.669 21.2826C213.482 21.701 213.208 22.0811 212.862 22.4014C212.516 22.7216 212.106 22.9756 211.654 23.1489C211.202 23.3222 210.718 23.4114 210.229 23.4114Z" fill="#CFE0E6"/>
<path id="Vector_33" d="M224.733 95.1034C227.872 95.1034 230.416 92.7468 230.416 89.8399C230.416 86.933 227.872 84.5764 224.733 84.5764C221.594 84.5764 219.049 86.933 219.049 89.8399C219.049 92.7468 221.594 95.1034 224.733 95.1034Z" fill="white"/>
<path id="Vector_34" d="M224.732 82.2169C222.601 82.2169 220.557 83.0009 219.05 84.3965C217.543 85.792 216.697 87.6848 216.697 89.6584C216.697 93.7682 224.732 107.264 224.732 107.264C224.732 107.264 232.768 93.7682 232.768 89.6584C232.768 88.6811 232.56 87.7135 232.156 86.8107C231.753 85.9078 231.161 85.0875 230.415 84.3965C229.668 83.7055 228.783 83.1574 227.808 82.7834C226.833 82.4094 225.788 82.2169 224.732 82.2169ZM224.732 93.2884C223.996 93.2884 223.276 93.0861 222.664 92.7072C222.051 92.3283 221.574 91.7897 221.292 91.1596C221.01 90.5294 220.936 89.8361 221.08 89.1671C221.224 88.4982 221.579 87.8837 222.099 87.4014C222.62 86.9192 223.284 86.5907 224.006 86.4577C224.728 86.3246 225.477 86.3929 226.158 86.6539C226.838 86.9149 227.42 87.3569 227.829 87.924C228.238 88.4911 228.456 89.1578 228.456 89.8399C228.456 90.2927 228.36 90.7412 228.173 91.1596C227.986 91.578 227.711 91.9581 227.366 92.2783C227.02 92.5985 226.609 92.8526 226.158 93.0259C225.706 93.1992 225.221 93.2884 224.732 93.2884Z" fill="#3F3D56"/>
<path id="Vector_35" d="M177.106 54.6292C180.245 54.6292 182.79 52.2726 182.79 49.3657C182.79 46.4588 180.245 44.1022 177.106 44.1022C173.967 44.1022 171.423 46.4588 171.423 49.3657C171.423 52.2726 173.967 54.6292 177.106 54.6292Z" fill="white"/>
<path id="Vector_36" d="M177.106 41.7428C174.975 41.7428 172.931 42.5268 171.424 43.9223C169.917 45.3178 169.071 47.2106 169.071 49.1842C169.071 53.294 177.106 66.7896 177.106 66.7896C177.106 66.7896 185.142 53.294 185.142 49.1842C185.142 47.2106 184.296 45.3178 182.789 43.9223C181.282 42.5268 179.238 41.7428 177.106 41.7428ZM177.106 52.8142C176.37 52.8142 175.65 52.6119 175.038 52.233C174.425 51.8541 173.948 51.3155 173.666 50.6854C173.384 50.0552 173.31 49.3619 173.454 48.6929C173.598 48.024 173.953 47.4095 174.473 46.9272C174.994 46.445 175.658 46.1165 176.38 45.9835C177.102 45.8504 177.851 45.9187 178.532 46.1797C179.212 46.4407 179.794 46.8827 180.203 47.4498C180.612 48.0169 180.83 48.6836 180.83 49.3657C180.83 49.8186 180.734 50.267 180.547 50.6854C180.36 51.1038 180.085 51.4839 179.74 51.8041C179.394 52.1244 178.983 52.3784 178.532 52.5517C178.08 52.725 177.595 52.8142 177.106 52.8142Z" fill="#3F3D56"/>
<path id="Vector_37" d="M233.356 39.9278C236.495 39.9278 239.04 37.5712 239.04 34.6643C239.04 31.7574 236.495 29.4008 233.356 29.4008C230.217 29.4008 227.672 31.7574 227.672 34.6643C227.672 37.5712 230.217 39.9278 233.356 39.9278Z" fill="white"/>
<path id="Vector_38" d="M233.356 27.0414C231.225 27.0414 229.181 27.8254 227.674 29.2209C226.167 30.6165 225.321 32.5092 225.321 34.4828C225.321 38.5926 233.356 52.0882 233.356 52.0882C233.356 52.0882 241.392 38.5926 241.392 34.4828C241.392 32.5092 240.545 30.6165 239.038 29.2209C237.531 27.8254 235.487 27.0414 233.356 27.0414ZM233.356 38.1128C232.62 38.1128 231.9 37.9106 231.287 37.5316C230.675 37.1527 230.198 36.6141 229.916 35.984C229.634 35.3539 229.56 34.6605 229.704 33.9916C229.848 33.3226 230.202 32.7082 230.723 32.2259C231.244 31.7436 231.907 31.4152 232.63 31.2821C233.352 31.149 234.101 31.2173 234.781 31.4783C235.462 31.7393 236.043 32.1813 236.452 32.7484C236.862 33.3155 237.08 33.9823 237.08 34.6643C237.08 35.5789 236.688 36.456 235.989 37.1028C235.291 37.7495 234.344 38.1128 233.356 38.1128Z" fill="#3F3D56"/>
</g>
<g id="woman">
<path id="Vector_39" d="M114.376 200H0.371352C0.272863 200 0.178408 199.964 0.108766 199.899C0.0391241 199.835 0 199.747 0 199.656C0 199.565 0.0391241 199.477 0.108766 199.413C0.178408 199.349 0.272863 199.312 0.371352 199.312H114.376C114.475 199.312 114.569 199.349 114.639 199.413C114.709 199.477 114.748 199.565 114.748 199.656C114.748 199.747 114.709 199.835 114.639 199.899C114.569 199.964 114.475 200 114.376 200Z" fill="#3F3D56"/>
<path id="Vector_40" d="M70.1342 195.919L74.658 195.444L74.8307 179.059L68.1542 179.761L70.1342 195.919Z" fill="#FFB8B8"/>
<path id="Vector_41" d="M83.8586 198.417L69.6414 199.911L69.0181 194.824L77.7423 193.907C79.1991 193.754 80.662 194.143 81.809 194.989C82.9561 195.835 83.6933 197.068 83.8586 198.417Z" fill="#2F2E41"/>
<path id="Vector_42" d="M23.6113 195.657H28.1641L30.3298 179.395L23.6106 179.396L23.6113 195.657Z" fill="#FFB8B8"/>
<path id="Vector_43" d="M36.9445 199.572H22.636L22.6358 194.453L31.4159 194.452C32.8821 194.452 34.2883 194.992 35.3251 195.952C36.3619 196.912 36.9444 198.214 36.9445 199.572Z" fill="#2F2E41"/>
<path id="Vector_44" d="M56.2759 122.936L58.8754 130.766L72.9867 159.044L76.7002 185.868L68.1592 186.212L62.9602 161.451L45.1354 143.569L29.5386 190.338L22.4829 189.65C22.4829 189.65 28.4245 129.126 36.5943 122.936C36.5943 122.936 49.9629 117.09 56.2759 122.936Z" fill="#2F2E41"/>
<path id="Vector_45" d="M44.745 89.1499C49.7823 89.1499 53.8658 85.3684 53.8658 80.7037C53.8658 76.0389 49.7823 72.2574 44.745 72.2574C39.7078 72.2574 35.6243 76.0389 35.6243 80.7037C35.6243 85.3684 39.7078 89.1499 44.745 89.1499Z" fill="#FFB8B8"/>
<path id="Vector_46" d="M57.2043 124.483C57.2043 124.483 58.3183 89.4065 42.7216 91.8138C27.1248 94.221 33.6235 128.094 33.6235 128.094C33.6235 128.094 36.9656 134.284 45.1354 127.406C53.3051 120.529 57.2043 124.483 57.2043 124.483Z" fill="#CFE0E6"/>
<path id="Vector_47" opacity="0.2" d="M35.666 106.601L39.3361 119.629L44.9275 124.807L37.1514 122.42L35.666 106.601Z" fill="black"/>
<path id="Vector_48" d="M57.3195 139.318C56.8063 139.146 56.3401 138.871 55.9538 138.514C55.5675 138.157 55.2705 137.726 55.0837 137.251C54.8968 136.776 54.8247 136.268 54.8725 135.765C54.9202 135.261 55.0866 134.773 55.3599 134.336L46.6855 125.036L53.5238 124.212L60.7127 133.169C61.4761 133.643 62.0253 134.36 62.2562 135.184C62.4871 136.008 62.3836 136.881 61.9653 137.639C61.5471 138.397 60.8431 138.987 59.9869 139.296C59.1306 139.606 58.1816 139.613 57.3195 139.318Z" fill="#FFB8B8"/>
<path id="Vector_49" d="M46.7582 98.9583L47.7348 116.746L59.2467 130.501L54.4192 133.94L38.8224 119.497C38.8224 119.497 33.2521 101.958 37.337 96.8001C38.8688 94.8658 40.5573 94.3338 42.0695 94.4245C43.3138 94.5204 44.4772 95.0343 45.3408 95.8694C46.2043 96.7044 46.7084 97.803 46.7582 98.9583Z" fill="#CFE0E6"/>
<path id="Vector_50" d="M43.6603 89.5785C43.7039 89.5424 43.7378 89.4973 43.7592 89.4469C43.7807 89.3965 43.7892 89.3422 43.784 89.2882C43.7789 89.2343 43.7602 89.1822 43.7295 89.1361C43.6988 89.0899 43.6569 89.0511 43.6072 89.0226C42.7972 88.5581 42.1373 87.9002 41.6968 87.1179C41.2563 86.3357 41.0514 85.458 41.1037 84.5771C41.156 83.6962 41.4635 82.8446 41.9939 82.1118C42.5244 81.379 43.2582 80.792 44.1182 80.4125C46.7997 79.2285 50.4334 80.1496 52.4157 77.8744C52.8189 77.3877 53.1039 76.8261 53.2515 76.2281C53.3991 75.6301 53.4056 75.0096 53.2708 74.409C52.8431 72.2601 51.0986 70.6643 49.145 69.5706C46.7451 68.2271 43.9869 67.5329 41.1828 67.5667C38.3787 67.6005 35.6409 68.3609 33.2795 69.7617C30.9182 71.1625 29.0277 73.1478 27.8223 75.4926C26.6169 77.8374 26.1448 80.448 26.4595 83.0285C26.7116 85.0967 27.4008 87.4158 26.0728 89.095C24.904 90.5728 22.6979 90.8499 20.7599 91.2171C16.6034 92.0047 12.5933 93.8217 9.77257 96.7566C6.95183 99.6914 5.44704 103.809 6.2975 107.658C7.14797 111.508 10.5599 114.89 14.7534 115.487C18.1667 115.973 21.6912 114.63 24.1978 112.43C26.7044 110.231 28.2888 107.26 29.2881 104.199C30.4743 100.565 30.9422 96.6503 33.0837 93.4138C35.1792 90.2466 39.6952 87.9763 43.2345 89.6258C43.3024 89.6586 43.3793 89.6716 43.4553 89.6632C43.5313 89.6548 43.6028 89.6252 43.6603 89.5785Z" fill="#2F2E41"/>
</g>
</g>
</svg>
